<svg xmlns="http://www.w3.org/2000/svg" viewBox="0 0 32 32" fill="none">
  <defs>
    <linearGradient id="bellGradient" x1="0%" y1="0%" x2="100%" y2="100%">
      <stop offset="0%" style="stop-color:#667EEA;stop-opacity:1" />
      <stop offset="50%" style="stop-color:#764BA2;stop-opacity:1" />
      <stop offset="100%" style="stop-color:#F093FB;stop-opacity:1" />
    </linearGradient>
  </defs>

  <!-- Background Circle -->
  <circle cx="16" cy="16" r="16" fill="url(#bellGradient)"/>

  <!-- Bell Body -->
  <path d="M16 6 C13.2 6 11 8.2 11 11 C11 14.5 9.8 16 9.3 18.4 C9.2 18.7 9.4 19 9.7 19 L22.3 19 C22.6 19 22.8 18.7 22.7 18.4 C22.2 16 21 14.5 21 11 C21 8.2 18.8 6 16 6 Z"
        fill="white"
        stroke="white"
        stroke-width="1.5"
        stroke-linecap="round"
        stroke-linejoin="round"/>

  <!-- Bell Clapper (bottom) -->
  <path d="M14 22 C14 23 14.9 24 16 24 C17.1 24 18 23 18 22"
        stroke="white"
        stroke-width="1.5"
        stroke-linecap="round"
        stroke-linejoin="round"
        fill="none"/>
</svg>
